# File created by Blade
# Date/Time:  Thu Sep 25 18:48:06 2014
# Frame Rate: 120.000 fps
#------------------------------------------------------
:FULLY-SPECIFIED
:DEGREES
1562
root 1.471639 32.780452 2.594748 7.311147 2.856992 0.970539
Spine -15.208534 9.147933 -0.641120
Head 20.690722 -14.916323 -1.177469
LeftShoulder -15.115414 -2.409944 35.228514
LeftArm 134.095373 -41.428035 -105.749723
LeftForeArm -40.466181 -0.000000 152.064407
LeftHand -3.417143 0.000000 -7.105900
LeftHandThumb1 -26.253704 0.000000 33.147579
RightShoulder -8.724801 3.585998 -12.120091
RightArm -112.882443 -72.778721 211.318719
RightForeArm -38.597695 -0.000000 100.567838
RightHand 70.535053 -0.000000 -4.454952
RightHandThumb1 -24.326973 -0.000000 -32.862282
LeftUpLeg 0.207426 6.519212 2.371095
LeftLeg -1.107418 -0.000000 0.000000
LeftFoot -10.586826 3.367798 -12.742945
LeftToeBase 10.921802 -0.000000 -0.000000
RightUpLeg 0.964535 -13.299761 -7.377341
RightLeg 0.419004 -0.000000 -0.000000
RightFoot -7.762844 -2.719157 7.115841
RightToeBase 0.819063 -0.000000 -0.000000
1563
root 1.475645 32.771459 2.598204 7.243243 2.972071 1.019356
Spine -15.026121 9.209023 -0.584621
Head 20.714425 -15.022204 -1.265632
LeftShoulder -15.081307 -2.762641 35.432132
LeftArm 132.264923 -41.998438 -105.779314
LeftForeArm -41.523699 -0.000000 152.209648
LeftHand -3.343799 -0.000000 -6.596575
LeftHandThumb1 -26.253704 0.000000 33.147579
RightShoulder -8.823488 2.996794 -12.856684
RightArm -115.462124 -72.336033 213.449971
RightForeArm -41.434341 -0.000000 113.946189
RightHand 39.646142 -0.000000 29.942503
RightHandThumb1 -24.326973 -0.000000 -32.862282
LeftUpLeg 0.256502 6.440381 2.339598
LeftLeg -1.067618 -0.000000 0.000000
LeftFoot -10.668326 3.279246 -12.740786
LeftToeBase 11.004698 -0.000000 -0.000000
RightUpLeg 1.042789 -13.259591 -7.438002
RightLeg 0.488305 -0.000000 -0.000000
RightFoot -7.906364 -2.877339 7.041263
RightToeBase 0.810611 -0.000000 -0.000000
1564
root 1.479001 32.764756 2.599853 7.115866 3.106814 1.065582
Spine -14.731681 9.237834 -0.498413
Head 20.718466 -15.077946 -1.336097
LeftShoulder -15.054907 -2.807442 35.410023
LeftArm 130.954438 -42.445366 -106.049571
LeftForeArm -42.213455 -0.000000 152.284725
LeftHand -3.194030 0.000000 -6.164358
LeftHandThumb1 -26.253704 0.000000 33.147579
RightShoulder -9.011475 2.473712 -12.956607
RightArm -117.917748 -71.591924 215.648596
RightForeArm -47.446353 -0.000000 113.473301
RightHand 37.012505 -0.000000 20.914982
RightHandThumb1 -24.326973 -0.000000 -32.862282
LeftUpLeg 0.352921 6.369016 2.320625
LeftLeg -1.033213 -0.000000 0.000000
LeftFoot -10.701711 3.210166 -12.755594
LeftToeBase 10.965034 -0.000000 -0.000000
RightUpLeg 1.181203 -13.211107 -7.509866
RightLeg 0.564030 -0.000000 -0.000000
RightFoot -8.072986 -3.008553 7.104250
RightToeBase 0.882597 -0.000000 -0.000000
1565
root 1.482071 32.759792 2.607248 6.903916 3.276643 1.124661
Spine -14.315993 9.245665 -0.414528
Head 20.666220 -15.096807 -1.267180
LeftShoulder -15.014495 -2.578683 35.195920
LeftArm 130.150877 -42.739933 -106.615625
LeftForeArm -42.907477 0.000000 152.316948
LeftHand -3.176725 -0.000000 -5.608249
LeftHandThumb1 -26.253704 0.000000 33.147579
RightShoulder -9.376720 1.677921 -12.834508
RightArm -124.063340 -70.278314 221.525926
RightForeArm -48.481466 0.000000 118.247128
RightHand 11.920625 -0.000000 29.674314
RightHandThumb1 -24.326973 -0.000000 -32.862282
LeftUpLeg 0.550825 6.254080 2.303252
LeftLeg -1.015646 -0.000000 0.000000
LeftFoot -10.706326 3.133638 -12.740688
LeftToeBase 10.933550 -0.000000 -0.000000
RightUpLeg 1.433261 -13.226612 -7.609620
RightLeg 0.616996 -0.000000 -0.000000
RightFoot -8.197593 -3.142795 7.110437
RightToeBase 0.920788 -0.000000 -0.000000
1566
root 1.486984 32.754221 2.611279 6.760214 3.425322 1.154928
Spine -13.997736 9.314862 -0.296083
Head 20.734669 -15.312875 -1.569148
LeftShoulder -14.889539 -2.412514 34.986911
LeftArm 129.351643 -43.082281 -107.343266
LeftForeArm -43.699753 -0.000000 152.311375
LeftHand -3.148017 -0.000000 -5.217565
LeftHandThumb1 -26.253704 0.000000 33.147579
RightShoulder -9.467169 1.017493 -13.137071
RightArm -120.853966 -70.291695 218.192168
RightForeArm -47.942608 -0.000000 117.895112
RightHand 8.926973 0.000000 32.528805
RightHandThumb1 -24.326973 -0.000000 -32.862282
LeftUpLeg 0.672788 6.189736 2.299630
LeftLeg -0.989779 -0.000000 0.000000
LeftFoot -10.742771 3.047662 -12.689605
LeftToeBase 10.929965 -0.000000 -0.000000
RightUpLeg 1.590170 -13.182489 -7.666850
RightLeg 0.693928 -0.000000 -0.000000
RightFoot -8.298141 -3.319110 7.109840
RightToeBase 0.832074 -0.000000 -0.000000
1567
root 1.491478 32.749475 2.613349 6.618554 3.610082 1.213777
Spine -13.670836 9.454856 -0.243236
Head 20.749938 -15.616703 -1.808157
LeftShoulder -14.657139 -2.362929 34.741550
LeftArm 128.526389 -43.396442 -108.080627
LeftForeArm -44.636315 -0.000000 152.273574
LeftHand -3.141183 -0.000000 -4.639117
LeftHandThumb1 -26.253704 0.000000 33.147579
RightShoulder -9.727923 0.299811 -13.401511
RightArm -118.173826 -70.177610 215.331294
RightForeArm -47.977900 0.000000 117.403108
RightHand 6.468217 -0.000000 33.242921
RightHandThumb1 -24.326973 -0.000000 -32.862282
LeftUpLeg 0.780152 6.089925 2.271540
LeftLeg -0.949191 -0.000000 0.000000
LeftFoot -10.754568 2.937832 -12.699236
LeftToeBase 10.969940 -0.000000 -0.000000
RightUpLeg 1.750634 -13.154884 -7.748409
RightLeg 0.775337 -0.000000 -0.000000
RightFoot -8.449128 -3.501782 7.152029
RightToeBase 0.887871 -0.000000 -0.000000
